<svg xmlns="http://www.w3.org/2000/svg" width="14.376" height="15.217" viewBox="0 0 14.376 15.217">
  <path id="Union_1" data-name="Union 1" d="M-1335.831,15.717l-3.842-3.841A6.269,6.269,0,0,1-1343.25,13a6.257,6.257,0,0,1-6.25-6.25A6.257,6.257,0,0,1-1343.25.5,6.257,6.257,0,0,1-1337,6.75a6.224,6.224,0,0,1-1.9,4.486l3.774,3.773ZM-1343.25,1.5a5.256,5.256,0,0,0-5.25,5.25,5.256,5.256,0,0,0,5.25,5.25,5.261,5.261,0,0,0,3.308-1.173A5.233,5.233,0,0,0-1338,6.75,5.256,5.256,0,0,0-1343.25,1.5Z" transform="translate(1349.5 -0.5)" fill="#265781"/>
</svg>
