<!-- Generated by IcoMoon.io -->
<svg version="1.1" xmlns="http://www.w3.org/2000/svg" width="37" height="32" viewBox="0 0 37 32">
<title>arrow-right</title>
<path d="M14.109 0.781l-13.333 13.333c-0.483 0.483-0.781 1.149-0.781 1.886s0.299 1.403 0.781 1.886l13.333 13.333c0.483 0.483 1.149 0.781 1.886 0.781 1.473 0 2.667-1.194 2.667-2.667 0-0.736-0.299-1.403-0.781-1.886v0l-8.781-8.781h25.566c1.473 0 2.667-1.194 2.667-2.667s-1.194-2.667-2.667-2.667v0h-25.562l8.781-8.781c0.482-0.483 0.78-1.149 0.78-1.885 0-1.473-1.194-2.668-2.668-2.668-0.737 0-1.405 0.299-1.888 0.783l-0 0z"></path>
</svg>
