<!-- Generated by IcoMoon.io -->
<svg version="1.1" xmlns="http://www.w3.org/2000/svg" width="37" height="32" viewBox="0 0 37 32">
<title>arrow-left</title>
<path d="M23.218 0.781l13.333 13.333c0.483 0.483 0.781 1.149 0.781 1.886s-0.299 1.403-0.781 1.886l-13.333 13.333c-0.483 0.483-1.149 0.781-1.886 0.781-1.473 0-2.667-1.194-2.667-2.667 0-0.736 0.299-1.403 0.781-1.886v0l8.781-8.781h-25.56c-1.473 0-2.667-1.194-2.667-2.667s1.194-2.667 2.667-2.667v0h25.56l-8.78-8.781c-0.483-0.483-0.781-1.149-0.781-1.886 0-1.473 1.194-2.667 2.667-2.667 0.736 0 1.403 0.298 1.886 0.781v0z"></path>
</svg>
