<!-- Generated by IcoMoon.io -->
<svg version="1.1" xmlns="http://www.w3.org/2000/svg" width="32" height="32" viewBox="0 0 32 32">
<title>book</title>
<path d="M0 7.98c1.263 4.268 2.239 9.306 2.74 14.483l0.026 0.338c4.685 1.089 9.455 2.822 13.287 5.806-0.002-4.647 0-15.593 0-15.593-1.732-1.366-3.731-2.501-5.889-3.309l-0.153-0.050c-2.83-1.064-6.1-1.679-9.514-1.679-0.175 0-0.349 0.002-0.523 0.005h0.026z"></path>
<path d="M16.055 12.569s-4.706-4.838-14.623-5.225l-0.383-1.629s11.575 0.689 15.005 6.853z"></path>
<path d="M16.055 11.709s-3.821-5.678-13.64-6.668l-0.313-1.563s9.377 0.886 13.953 8.231z"></path>
<path d="M31.896 7.98c-1.263 4.268-2.239 9.306-2.74 14.483l-0.026 0.338c-4.685 1.089-9.455 2.822-13.287 5.806 0.002-4.647 0-15.594 0-15.594 1.732-1.365 3.731-2.5 5.889-3.309l0.153-0.050c2.829-1.063 6.1-1.679 9.514-1.679 0.175 0 0.35 0.002 0.524 0.005h-0.026z"></path>
<path d="M15.841 12.57s4.706-4.838 14.624-5.225l0.383-1.629s-11.577 0.689-15.006 6.854z"></path>
<path d="M15.841 11.712s3.82-5.678 13.64-6.668l0.313-1.563s-9.377 0.884-13.953 8.231z"></path>
</svg>
