<!-- Generated by IcoMoon.io -->
<svg version="1.1" xmlns="http://www.w3.org/2000/svg" width="32" height="32" viewBox="0 0 32 32">
<title>file</title>
<path d="M6.405 32.017c-1.528-0.047-2.749-1.298-2.749-2.833 0-0.027 0-0.055 0.001-0.082v0.004-26.196c-0.001-0.023-0.001-0.050-0.001-0.077 0-1.535 1.221-2.786 2.745-2.833h14.318l7.68 8.13v20.976c0.001 0.024 0.001 0.051 0.001 0.079 0 1.535-1.221 2.786-2.745 2.833h-0.004zM6.405 29.105h19.243v-17.463h-5.498c-1.528-0.047-2.749-1.298-2.749-2.833 0-0.027 0-0.055 0.001-0.082v0.004-5.821h-10.997zM20.151 8.731h4.928l-4.928-5.218zM9.557 19.948l1.944-2.058 3.152 3.337 5.902-6.247 1.944 2.058-7.846 8.306z"></path>
</svg>
