<!-- Generated by IcoMoon.io -->
<svg version="1.1" xmlns="http://www.w3.org/2000/svg" width="32" height="32" viewBox="0 0 32 32">
<title>house</title>
<path d="M13.295 31.977v0l-10.095-0.002v-20.932l9.775-9.775c0.783-0.783 1.864-1.268 3.059-1.268s2.276 0.484 3.059 1.268l10.066 10.065v20.64h-10.096v-8.65c0-1.593-1.292-2.885-2.885-2.885s-2.885 1.292-2.885 2.885v0 8.654zM16.175 17.553c3.185 0.004 5.766 2.585 5.77 5.769v5.768h4.326v-16.563l-9.217-9.22c-0.261-0.261-0.621-0.423-1.019-0.423s-0.758 0.162-1.019 0.423l-8.935 8.93v16.853h4.332v-5.767c0.003-3.184 2.583-5.765 5.767-5.77v0z"></path>
</svg>
