<!-- Generated by IcoMoon.io -->
<svg version="1.1" xmlns="http://www.w3.org/2000/svg" width="32" height="32" viewBox="0 0 32 32">
<title>letter</title>
<path d="M28.492 1.684h-24.421c-2.248 0-4.071 1.823-4.071 4.071v0 0.813l16.281 9.159 16.281-8.955v-1.011c0-0.002 0-0.004 0-0.007 0-2.248-1.823-4.071-4.071-4.071 0 0 0 0 0 0v0z"></path>
<path d="M15.264 19.796l-15.264-8.547v14.856c0 2.248 1.823 4.071 4.071 4.071v0h24.421c2.248 0 4.071-1.823 4.071-4.071v0-14.856l-15.264 8.547c-0.299 0.135-0.649 0.214-1.017 0.214s-0.718-0.079-1.033-0.22l0.016 0.006z"></path>
</svg>
