<!-- Generated by IcoMoon.io -->
<svg version="1.1" xmlns="http://www.w3.org/2000/svg" width="32" height="32" viewBox="0 0 32 32">
<title>map</title>
<path d="M15.929 0c-0.026 0-0.057 0-0.088 0-7.819 0-14.157 6.339-14.157 14.157 0 0.031 0 0.062 0 0.093v-0.005c-0.001 0.072-0.002 0.156-0.002 0.241 0 3.91 1.64 7.437 4.271 9.93l0.006 0.006c0.204 0.204 8.344 7.53 8.547 7.734 0.36 0.286 0.821 0.46 1.323 0.46s0.963-0.173 1.327-0.463l-0.004 0.003c0.204-0.204 8.547-7.53 8.547-7.734 2.639-2.499 4.282-6.028 4.282-9.94 0-0.083-0.001-0.166-0.002-0.248v0.012c0.003-0.114 0.005-0.249 0.005-0.384 0-7.656-6.207-13.863-13.863-13.863-0.068 0-0.135 0-0.202 0.001h0.010zM15.929 18.316c-2.248 0-4.071-1.823-4.071-4.071s1.823-4.071 4.071-4.071c2.248 0 4.071 1.823 4.071 4.071v0c-0.007 2.245-1.825 4.064-4.070 4.071h-0.001z"></path>
</svg>
