<!-- Generated by IcoMoon.io -->
<svg version="1.1" xmlns="http://www.w3.org/2000/svg" width="32" height="32" viewBox="0 0 32 32">
<title>medal</title>
<path d="M13.984 8.172l-4.321-7.2c-0.356-0.586-0.99-0.971-1.715-0.972h-6.947c0 0 0 0 0 0-0.552 0-1 0.448-1 1 0 0.215 0.068 0.414 0.183 0.576l-0.002-0.003 6.955 9.935c1.831-1.717 4.172-2.91 6.773-3.327l0.074-0.010zM30.998 0h-6.947c-0.725 0-1.359 0.386-1.71 0.963l-0.005 0.009-4.321 7.2c2.674 0.428 5.014 1.62 6.851 3.343l-0.007-0.007 6.957-9.934c0.113-0.16 0.181-0.359 0.181-0.573 0-0.552-0.448-1-1-1 0 0 0 0 0 0v0zM16 10c-6.075 0-11 4.925-11 11s4.925 11 11 11c6.075 0 11-4.925 11-11v0c0-6.075-4.925-11-11-11v0zM21.782 19.828l-2.371 2.311 0.561 3.264c0.006 0.036 0.010 0.078 0.010 0.121 0 0.396-0.321 0.717-0.717 0.717-0.122 0-0.237-0.030-0.338-0.084l0.004 0.002-2.932-1.541-2.933 1.54c-0.097 0.052-0.212 0.082-0.334 0.082-0.396 0-0.717-0.321-0.717-0.717 0-0.043 0.004-0.084 0.011-0.125l-0.001 0.004 0.561-3.264-2.371-2.311c-0.133-0.131-0.216-0.312-0.216-0.514 0-0.359 0.264-0.657 0.609-0.71h0.004l3.276-0.477 1.464-2.97c0.12-0.238 0.363-0.399 0.644-0.399s0.524 0.161 0.642 0.395l0.002 0.004 1.464 2.97 3.276 0.477c0.349 0.053 0.613 0.351 0.613 0.71 0 0.201-0.083 0.383-0.216 0.513v0z"></path>
</svg>
