<!-- Generated by IcoMoon.io -->
<svg version="1.1" xmlns="http://www.w3.org/2000/svg" width="32" height="32" viewBox="0 0 32 32">
<title>phone</title>
<path d="M30.171 20.802l-6.275-2.784c-0.366-0.165-0.793-0.262-1.243-0.262-0.966 0-1.828 0.444-2.394 1.14l-0.004 0.006-1.9 2.37c-3.089-1.985-5.639-4.535-7.566-7.525l-0.059-0.098 2.367-1.895c0.703-0.57 1.149-1.433 1.149-2.401 0-0.449-0.096-0.875-0.268-1.26l0.008 0.020-2.786-6.289c-0.493-1.083-1.565-1.822-2.811-1.822-0.276 0-0.543 0.036-0.798 0.104l0.022-0.005-5.296 1.379c-1.343 0.356-2.316 1.56-2.316 2.992 0 0.148 0.010 0.294 0.031 0.436l-0.002-0.016c2.072 14.044 13.038 25.010 26.909 27.060l0.174 0.021c0.127 0.019 0.274 0.030 0.424 0.030v0c1.424-0.004 2.622-0.972 2.974-2.286l0.005-0.022 1.375-5.306c0.065-0.235 0.102-0.505 0.102-0.783 0-1.243-0.739-2.313-1.802-2.794l-0.019-0.008z"></path>
</svg>
