<!-- Generated by IcoMoon.io -->
<svg version="1.1" xmlns="http://www.w3.org/2000/svg" width="32" height="32" viewBox="0 0 32 32">
<title>search</title>
<path d="M14.667 24c-5.155 0-9.333-4.179-9.333-9.333s4.179-9.333 9.333-9.333c5.155 0 9.333 4.179 9.333 9.333v0c-0.006 5.152-4.181 9.327-9.333 9.333h-0.001zM14.667 8c-3.682 0-6.667 2.985-6.667 6.667s2.985 6.667 6.667 6.667c3.682 0 6.667-2.985 6.667-6.667v0c-0.005-3.68-2.987-6.662-6.666-6.667h-0z"></path>
<path d="M26.276 24.391l-3.191-3.191c-0.555 0.711-1.175 1.33-1.862 1.868l-0.023 0.018 3.191 3.191c0.243 0.251 0.583 0.407 0.959 0.407 0.736 0 1.333-0.597 1.333-1.333 0-0.376-0.156-0.716-0.407-0.959l-0-0z"></path>
</svg>
