<!-- Generated by IcoMoon.io -->
<svg version="1.1" xmlns="http://www.w3.org/2000/svg" width="32" height="32" viewBox="0 0 32 32">
<title>target</title>
<path fill="none" stroke-linejoin="round" stroke-linecap="round" stroke-miterlimit="4" stroke-width="2.4689" stroke="#000" d="M30.766 16c0 8.155-6.611 14.766-14.766 14.766s-14.766-6.611-14.766-14.766c0-8.155 6.611-14.766 14.766-14.766v0c8.155 0 14.766 6.611 14.766 14.766v0z"></path>
<path fill="none" stroke-linejoin="round" stroke-linecap="round" stroke-miterlimit="4" stroke-width="2.4689" stroke="#000" d="M24.86 16c0 4.893-3.966 8.859-8.859 8.859s-8.859-3.966-8.859-8.859c0-4.893 3.966-8.859 8.858-8.859v0c0 0 0.001 0 0.001 0 4.893 0 8.859 3.966 8.859 8.859v0z"></path>
<path fill="none" stroke-linejoin="round" stroke-linecap="round" stroke-miterlimit="4" stroke-width="2.4689" stroke="#000" d="M18.954 16c0 1.631-1.322 2.953-2.953 2.953s-2.953-1.322-2.953-2.953c0-1.63 1.322-2.952 2.952-2.953v0c0 0 0.001 0 0.001 0 1.631 0 2.953 1.322 2.953 2.953v0z"></path>
</svg>
