<!-- Generated by IcoMoon.io -->
<svg version="1.1" xmlns="http://www.w3.org/2000/svg" width="32" height="32" viewBox="0 0 32 32">
<title>twitter</title>
<path d="M32.305 6.075c-1.12 0.519-2.421 0.877-3.788 1.005l-0.047 0.004c1.395-0.763 2.42-2.053 2.818-3.595l0.009-0.040c-1.22 0.738-2.641 1.298-4.155 1.601l-0.085 0.014c-1.25-1.228-2.958-1.993-4.844-2.017h-0.005c-3.588 0.123-6.451 3.057-6.461 6.661v0.001c-0.009 0.089-0.015 0.192-0.015 0.297 0 0.402 0.079 0.786 0.223 1.136l-0.007-0.020c-5.545-0.214-10.439-2.827-13.702-6.824l-0.026-0.033c-0.514 0.883-0.818 1.943-0.818 3.074 0 0.126 0.004 0.25 0.011 0.374l-0.001-0.017c0.043 2.277 1.228 4.268 3.004 5.429l0.025 0.016c-1.116-0.085-2.145-0.374-3.078-0.83l0.050 0.022c0 0.020 0 0.044 0 0.068 0 3.151 2.236 5.78 5.208 6.386l0.042 0.007c-0.454 0.133-0.976 0.209-1.515 0.209-0.106 0-0.211-0.003-0.316-0.009l0.014 0.001c-0.059 0.005-0.129 0.008-0.199 0.008-0.366 0-0.714-0.077-1.029-0.215l0.016 0.006c0.84 2.709 3.323 4.642 6.258 4.643v0c-2.18 1.762-4.985 2.829-8.039 2.829-0.084 0-0.168-0.001-0.252-0.002h-1.602c2.864 1.831 6.341 2.948 10.072 3.027h0.021c0.027 0 0.058 0 0.090 0 10.32 0 18.686-8.366 18.686-18.686 0-0.032 0-0.064 0-0.097v0.005-0.808c1.395-0.96 2.544-2.172 3.405-3.58l0.029-0.051z"></path>
</svg>
