<!-- Generated by IcoMoon.io -->
<svg version="1.1" xmlns="http://www.w3.org/2000/svg" width="32" height="32" viewBox="0 0 32 32">
<title>youtube</title>
<path d="M31.179 8.076c-0.375-1.382-1.438-2.45-2.788-2.828l-0.028-0.007c-2.482-0.67-12.439-0.67-12.439-0.67s-9.958 0-12.442 0.67c-1.378 0.384-2.441 1.452-2.809 2.806l-0.006 0.028c-0.424 2.241-0.667 4.818-0.667 7.452 0 0.093 0 0.185 0.001 0.278v-0.014c-0.001 0.078-0.001 0.171-0.001 0.263 0 2.634 0.243 5.211 0.707 7.711l-0.040-0.259c0.378 1.369 1.442 2.424 2.788 2.782l0.028 0.006c2.484 0.67 12.442 0.67 12.442 0.67s9.958 0 12.442-0.67c1.374-0.365 2.438-1.419 2.809-2.761l0.007-0.028c0.424-2.241 0.667-4.818 0.667-7.452 0-0.093 0-0.185-0.001-0.278v0.014c0-0.073 0.001-0.16 0.001-0.247 0-2.64-0.244-5.223-0.71-7.727l0.040 0.259zM12.664 20.526v-9.47l8.323 4.734-8.322 4.734z"></path>
</svg>
